<?xml version="1.0" standalone="no"?>
<!DOCTYPE svg PUBLIC "-//W3C//DTD SVG 20010904//EN"
 "http://www.w3.org/TR/2001/REC-SVG-20010904/DTD/svg10.dtd">
<svg version="1.0" xmlns="http://www.w3.org/2000/svg"
 width="222.000000pt" height="227.000000pt" viewBox="0 0 222.000000 227.000000"
 preserveAspectRatio="xMidYMid meet">

<g transform="translate(0.000000,227.000000) scale(0.100000,-0.100000)"
fill="#000000" stroke="none">
<path d="M1136 1897 c-3 -16 -6 -46 -6 -67 0 -34 3 -38 30 -42 33 -5 34 -5 45
83 l6 47 -35 4 c-31 3 -35 1 -40 -25z"/>
<path d="M1015 1868 c10 -83 12 -85 45 -80 33 5 36 19 24 95 -6 34 -9 37 -41
37 l-35 0 7 -52z"/>
<path d="M913 1903 c-27 -5 -28 -10 -7 -83 15 -54 17 -56 45 -52 16 2 29 10
29 16 0 37 -24 126 -34 125 -6 -1 -21 -4 -33 -6z"/>
<path d="M1251 1850 c-14 -68 -11 -76 23 -82 22 -4 25 0 41 59 10 35 16 65 14
67 -2 2 -18 7 -35 10 l-31 7 -12 -61z"/>
<path d="M1362 1816 c-21 -57 -21 -62 -5 -73 28 -21 38 -15 67 43 28 59 28 63
-14 81 -25 10 -26 9 -48 -51z"/>
<path d="M793 1860 c-13 -5 -23 -12 -23 -14 0 -3 12 -31 27 -61 25 -51 30 -55
53 -50 14 4 27 8 29 10 8 8 -42 125 -53 124 -6 0 -21 -4 -33 -9z"/>
<path d="M689 1803 c-13 -9 -25 -17 -27 -19 -2 -1 13 -27 34 -58 l37 -56 27
16 27 16 -29 54 c-16 29 -33 56 -37 58 -4 3 -19 -2 -32 -11z"/>
<path d="M1464 1761 l-32 -58 27 -16 c26 -15 27 -15 64 38 20 29 37 56 37 59
0 5 -54 36 -62 36 -2 0 -17 -27 -34 -59z"/>
<path d="M585 1725 l-30 -24 45 -46 c49 -50 59 -53 83 -27 15 16 14 21 -19 62
-20 25 -38 48 -42 52 -4 3 -20 -4 -37 -17z"/>
<path d="M985 1734 c-155 -33 -314 -146 -394 -278 -111 -185 -120 -404 -24
-599 49 -97 171 -220 264 -265 132 -64 292 -84 419 -53 342 84 544 432 447
769 -47 162 -161 298 -309 372 -134 66 -264 83 -403 54z m319 -32 c177 -64
315 -204 377 -382 27 -79 33 -254 10 -335 -36 -128 -118 -248 -220 -325 -180
-136 -422 -158 -627 -58 -81 40 -196 145 -242 221 -61 102 -85 188 -85 312 -1
94 3 121 25 183 38 105 83 174 164 252 75 71 156 117 255 145 80 22 265 15
343 -13z"/>
<path d="M826 1464 c-13 -12 -16 -41 -16 -155 0 -132 1 -139 20 -139 19 0 20
7 20 135 0 128 1 135 20 135 19 0 20 -7 20 -175 l0 -175 -148 0 c-117 0 -152
-3 -170 -16 -24 -16 -29 -53 -12 -85 10 -18 23 -19 190 -19 173 0 180 1 180
20 0 19 -7 20 -170 20 -163 0 -170 1 -170 20 0 19 7 20 170 20 l170 0 0 199
c0 195 -1 200 -22 215 -29 20 -62 20 -82 0z"/>
<path d="M1318 1469 c-16 -9 -18 -30 -18 -214 l0 -205 165 0 c158 0 165 -1
165 -20 0 -19 -7 -20 -165 -20 -158 0 -165 -1 -165 -20 0 -19 7 -20 173 -20
188 0 197 2 197 54 0 59 -4 61 -180 64 l-160 3 2 172 c3 164 4 172 23 172 19
0 20 -7 20 -133 0 -119 2 -132 18 -132 15 0 17 14 17 145 0 132 -2 145 -19
155 -25 13 -51 12 -73 -1z"/>
<path d="M1060 1180 c0 -23 4 -30 20 -30 16 0 20 7 20 30 0 23 -4 30 -20 30
-16 0 -20 -7 -20 -30z"/>
<path d="M1120 1180 c0 -23 4 -30 20 -30 16 0 20 7 20 30 0 23 -4 30 -20 30
-16 0 -20 -7 -20 -30z"/>
<path d="M1040 1108 c-49 -26 -75 -57 -89 -105 l-10 -33 130 0 c122 0 129 1
129 20 0 19 -7 20 -106 20 l-105 0 15 21 c24 34 68 59 106 59 109 0 168 -134
94 -211 -55 -58 -132 -59 -184 -4 -13 14 -32 25 -42 25 -23 0 -23 -5 2 -40 43
-61 156 -80 221 -37 82 54 100 171 36 244 -57 65 -122 79 -197 41z"/>
<path d="M1561 1698 c-39 -48 -40 -52 -25 -70 10 -10 21 -18 26 -18 6 0 29 21
53 48 45 49 45 61 4 82 -14 8 -25 0 -58 -42z"/>
<path d="M501 1637 c-11 -13 -21 -26 -21 -29 0 -4 23 -23 51 -44 l51 -37 21
21 21 22 -25 26 c-13 14 -36 34 -50 45 -26 18 -26 18 -48 -4z"/>
<path d="M1640 1615 l-44 -45 21 -22 21 -21 44 33 c24 19 47 37 51 41 11 9
-21 59 -37 59 -7 0 -32 -20 -56 -45z"/>
<path d="M426 1529 c-10 -17 -16 -32 -14 -33 8 -8 108 -56 116 -56 5 0 14 11
20 24 10 23 7 27 -43 60 -29 20 -55 36 -57 36 -2 0 -12 -14 -22 -31z"/>
<path d="M1712 1525 c-52 -35 -52 -36 -36 -61 9 -13 20 -23 23 -22 3 2 30 16
59 31 l52 27 -15 30 c-9 17 -19 30 -23 30 -4 0 -31 -16 -60 -35z"/>
<path d="M373 1416 l-11 -35 61 -20 c63 -22 70 -20 81 15 6 18 -2 25 -54 48
-34 14 -63 26 -64 26 -1 0 -7 -16 -13 -34z"/>
<path d="M1764 1422 c-48 -25 -51 -29 -42 -54 l9 -26 62 20 c34 12 63 22 65
23 7 5 -22 65 -31 65 -7 -1 -35 -13 -63 -28z"/>
<path d="M340 1311 c0 -11 -3 -26 -6 -34 -6 -17 7 -23 82 -32 51 -6 52 -6 56
23 4 28 2 29 -58 45 -77 21 -74 21 -74 -2z"/>
<path d="M1794 1313 c-46 -13 -50 -17 -46 -39 6 -34 11 -35 81 -23 61 11 66
16 55 57 -7 25 -19 26 -90 5z"/>
<path d="M324 1201 c-2 -2 -4 -17 -4 -33 l0 -28 70 0 c68 0 70 1 70 25 0 17
-6 26 -22 29 -35 8 -109 12 -114 7z"/>
<path d="M1807 1203 c-46 -4 -48 -6 -45 -31 3 -26 6 -27 71 -30 l67 -3 0 36
c0 30 -3 35 -22 33 -13 -1 -45 -3 -71 -5z"/>
<path d="M370 1081 c-25 -3 -44 -9 -44 -14 12 -67 12 -67 57 -67 54 0 81 24
71 64 -4 16 -13 25 -23 24 -9 0 -36 -4 -61 -7z m70 -24 c0 -13 -5 -28 -12 -35
-18 -18 -75 -15 -82 4 -13 34 -6 43 37 47 23 2 45 4 50 5 4 1 7 -8 7 -21z"/>
<path d="M1771 1076 c2 -2 33 -6 69 -10 44 -4 60 -3 50 4 -14 9 -129 15 -119
6z"/>
<path d="M1772 1028 c-33 -33 4 -88 60 -88 63 0 81 77 21 92 -15 4 -23 0 -26
-13 -3 -11 -1 -22 4 -25 5 -3 9 2 9 10 0 20 26 21 34 1 16 -42 -37 -69 -79
-41 -29 19 -32 43 -7 62 9 7 12 14 7 14 -6 0 -16 -5 -23 -12z"/>
<path d="M1734 1010 c0 -13 4 -16 10 -10 7 7 7 13 0 20 -6 6 -10 3 -10 -10z"/>
<path d="M393 968 c-24 -5 -43 -13 -43 -18 0 -7 67 7 115 25 20 7 -31 3 -72
-7z"/>
<path d="M444 929 c-10 -12 -31 -29 -45 -38 -26 -16 -25 -16 37 -16 34 0 60 3
58 7 -3 5 -16 8 -30 8 -30 0 -30 7 -2 37 12 13 17 23 11 23 -5 0 -18 -10 -29
-21z"/>
<path d="M1790 909 c30 -11 59 -18 65 -16 10 4 -95 38 -112 36 -4 0 17 -9 47
-20z"/>
<path d="M1710 852 c0 -6 43 -26 101 -47 10 -4 19 3 27 20 17 37 14 44 -7 16
l-19 -25 -51 22 c-28 11 -51 18 -51 14z"/>
<path d="M435 833 c-16 -3 -34 -9 -40 -15 -7 -7 -3 -8 12 -4 32 10 51 -28 27
-55 -9 -10 -13 -19 -8 -19 11 0 94 82 94 93 0 7 -33 7 -85 0z m50 -23 c-13
-15 -22 -17 -29 -10 -12 12 8 30 33 30 11 0 10 -5 -4 -20z"/>
<path d="M1714 807 c10 -7 28 -20 40 -30 20 -17 20 -17 -38 -11 -73 8 -72 -5
4 -48 48 -26 44 -13 -6 19 -16 10 -11 12 34 12 28 1 52 4 52 9 0 9 -83 62 -96
61 -5 0 -1 -6 10 -12z"/>
<path d="M498 749 c-27 -17 -48 -36 -48 -41 0 -6 15 1 34 16 19 14 37 26 40
26 3 0 -4 -19 -14 -42 -30 -66 -24 -71 30 -32 28 20 49 39 46 42 -3 2 -21 -7
-41 -22 -19 -15 -35 -24 -35 -21 0 3 11 28 25 55 14 28 22 50 18 50 -5 0 -29
-14 -55 -31z"/>
<path d="M1647 650 c21 -32 39 -57 41 -55 2 2 -1 12 -7 23 -14 26 11 48 48 44
16 -1 2 8 -33 23 -87 37 -91 33 -49 -35z m28 21 c0 -20 -17 -17 -33 7 -14 22
-14 22 9 14 13 -5 24 -14 24 -21z"/>
<path d="M565 656 l-50 -44 27 -28 c32 -33 48 -28 17 5 -20 21 -20 24 -5 39
14 15 18 14 41 -8 30 -28 34 -16 5 15 -19 20 -19 23 -5 35 13 11 20 9 40 -10
14 -13 25 -19 25 -13 0 5 -10 19 -23 31 l-23 22 -49 -44z"/>
<path d="M1572 621 l-2 -44 -26 24 c-38 34 -26 9 18 -40 43 -46 57 -53 32 -16
-22 33 -12 41 31 28 19 -6 35 -8 35 -4 0 4 -18 13 -39 20 -34 10 -40 16 -44
44 -3 26 -4 24 -5 -12z"/>
<path d="M670 633 c0 -5 5 -14 10 -19 7 -7 -1 -25 -25 -57 -20 -26 -32 -47
-27 -47 5 0 23 20 41 45 27 38 36 44 47 34 8 -7 17 -10 20 -7 2 3 -11 17 -31
32 -19 15 -35 23 -35 19z"/>
<path d="M1460 575 c-6 -8 -10 -22 -8 -32 3 -14 13 -18 48 -18 38 0 45 -3 45
-20 0 -15 -7 -20 -27 -20 -38 1 -35 -14 3 -22 20 -4 28 -10 25 -20 -3 -8 -2
-12 2 -9 5 3 8 27 8 53 l-1 48 -42 0 c-22 0 -44 3 -49 7 -13 13 18 39 39 32
13 -4 17 -2 13 5 -10 16 -41 14 -56 -4z"/>
<path d="M769 518 c-40 -74 -46 -90 -24 -63 22 26 68 116 62 121 -2 2 -19 -24
-38 -58z"/>
<path d="M812 518 c-17 -17 -15 -23 13 -54 19 -20 22 -30 14 -40 -14 -17 -49
-1 -49 23 0 9 -3 14 -6 10 -4 -3 -4 -18 0 -32 5 -18 13 -25 29 -25 46 0 64 49
27 72 -23 15 -27 48 -6 48 8 0 22 -10 30 -22 11 -16 16 -18 16 -7 0 20 -20 39
-40 39 -9 0 -21 -5 -28 -12z"/>
<path d="M1386 473 c4 -32 11 -62 17 -68 6 -7 8 -3 4 13 -8 33 28 50 55 25 12
-10 19 -13 17 -7 -6 19 -78 94 -89 94 -6 0 -8 -21 -4 -57z m34 22 c6 -8 9 -19
5 -25 -11 -17 -22 -11 -27 15 -6 28 3 32 22 10z"/>
<path d="M1180 500 c0 -5 5 -10 10 -10 6 0 10 5 10 10 0 6 -4 10 -10 10 -5 0
-10 -4 -10 -10z"/>
<path d="M906 489 c-2 -8 -9 -29 -15 -48 -16 -50 -14 -58 19 -70 18 -6 30 -6
30 0 0 5 -6 9 -12 9 -33 1 -38 15 -23 65 8 26 13 50 10 53 -2 3 -6 -1 -9 -9z"/>
<path d="M1274 494 c-8 -3 -6 -22 6 -62 16 -50 21 -57 42 -54 12 1 29 9 37 16
11 12 11 18 -2 43 -9 15 -18 36 -21 46 -5 16 -36 22 -62 11z m56 -23 c0 -23
-36 -35 -44 -14 -8 20 1 33 25 33 12 0 19 -7 19 -19z m15 -56 c0 -13 -8 -21
-22 -23 -17 -3 -23 2 -23 16 0 10 3 22 7 26 13 13 38 1 38 -19z"/>
<path d="M977 423 c-7 -64 0 -73 48 -72 l30 1 -35 11 c-44 13 -42 11 -34 31 4
10 18 16 38 17 l31 1 -33 11 c-44 14 -40 43 6 41 18 -1 32 2 32 7 0 5 -17 9
-39 9 l-38 0 -6 -57z"/>
<path d="M1192 445 c0 -22 4 -53 8 -70 7 -27 8 -28 8 -5 0 14 -3 45 -7 70 l-8
45 -1 -40z"/>
<path d="M1082 403 c0 -38 3 -53 5 -35 5 40 33 44 53 7 7 -14 18 -25 23 -25 5
0 2 11 -7 25 -13 20 -14 29 -5 44 19 30 4 51 -36 51 l-35 0 2 -67z m63 37 c0
-9 -11 -16 -27 -18 -23 -3 -28 1 -28 18 0 17 5 21 28 18 16 -2 27 -9 27 -18z"/>
<path d="M785 380 c4 -6 11 -8 16 -5 14 9 11 15 -7 15 -8 0 -12 -5 -9 -10z"/>
</g>
</svg>
